<mxfile host="app.diagrams.net" modified="2022-04-15T07:01:45.706Z" agent="5.0 (Macintosh; Intel Mac OS X 10_15_7) AppleWebKit/537.36 (KHTML, like Gecko) Chrome/100.0.4896.75 Safari/537.36" etag="KcBGGiFfwUQPnqbBZfmD" version="17.4.2" type="github">
  <diagram id="4IIe2boHkElMYVHtHCzJ" name="Page-1">
    <mxGraphModel dx="2013" dy="795" grid="1" gridSize="10" guides="1" tooltips="1" connect="1" arrows="1" fold="1" page="1" pageScale="1" pageWidth="827" pageHeight="1169" math="0" shadow="0">
      <root>
        <mxCell id="0" />
        <mxCell id="1" parent="0" />
        <mxCell id="MwiCVVlhlAA8o-FRzRT3-21" value="" style="rounded=0;whiteSpace=wrap;html=1;dashed=1;fillColor=#f9f7ed;strokeColor=#36393d;" vertex="1" parent="1">
          <mxGeometry x="20" y="420" width="550" height="220" as="geometry" />
        </mxCell>
        <mxCell id="MwiCVVlhlAA8o-FRzRT3-10" value="" style="rounded=0;whiteSpace=wrap;html=1;dashed=1;fillColor=#cce5ff;strokeColor=#36393d;" vertex="1" parent="1">
          <mxGeometry x="90" y="440" width="180" height="180" as="geometry" />
        </mxCell>
        <mxCell id="MwiCVVlhlAA8o-FRzRT3-19" value="" style="rounded=0;whiteSpace=wrap;html=1;dashed=1;fillColor=#f9f7ed;strokeColor=#36393d;" vertex="1" parent="1">
          <mxGeometry x="20" y="120" width="550" height="220" as="geometry" />
        </mxCell>
        <mxCell id="MwiCVVlhlAA8o-FRzRT3-23" value="" style="ellipse;shape=cloud;whiteSpace=wrap;html=1;" vertex="1" parent="1">
          <mxGeometry x="610" y="60" width="200" height="130" as="geometry" />
        </mxCell>
        <mxCell id="MwiCVVlhlAA8o-FRzRT3-3" value="" style="rounded=0;whiteSpace=wrap;html=1;dashed=1;fillColor=#cce5ff;strokeColor=#36393d;" vertex="1" parent="1">
          <mxGeometry x="324" y="140" width="180" height="180" as="geometry" />
        </mxCell>
        <mxCell id="MwiCVVlhlAA8o-FRzRT3-25" value="daily or manual" style="edgeStyle=orthogonalEdgeStyle;rounded=0;orthogonalLoop=1;jettySize=auto;html=1;exitX=0;exitY=0.5;exitDx=0;exitDy=0;exitPerimeter=0;entryX=0.5;entryY=0;entryDx=0;entryDy=0;entryPerimeter=0;" edge="1" parent="1" source="MwiCVVlhlAA8o-FRzRT3-24" target="MwiCVVlhlAA8o-FRzRT3-4">
          <mxGeometry relative="1" as="geometry">
            <mxPoint x="414" y="210" as="targetPoint" />
            <Array as="points">
              <mxPoint x="670" y="90" />
              <mxPoint x="414" y="90" />
            </Array>
          </mxGeometry>
        </mxCell>
        <mxCell id="MwiCVVlhlAA8o-FRzRT3-1" value="" style="rounded=0;whiteSpace=wrap;html=1;dashed=1;fillColor=#cce5ff;strokeColor=#36393d;" vertex="1" parent="1">
          <mxGeometry x="90" y="140" width="180" height="180" as="geometry" />
        </mxCell>
        <mxCell id="MwiCVVlhlAA8o-FRzRT3-5" style="edgeStyle=orthogonalEdgeStyle;rounded=0;orthogonalLoop=1;jettySize=auto;html=1;exitX=1;exitY=0.5;exitDx=0;exitDy=0;exitPerimeter=0;entryX=0;entryY=0.5;entryDx=0;entryDy=0;entryPerimeter=0;" edge="1" parent="1" source="MwiCVVlhlAA8o-FRzRT3-2" target="MwiCVVlhlAA8o-FRzRT3-4">
          <mxGeometry relative="1" as="geometry" />
        </mxCell>
        <mxCell id="MwiCVVlhlAA8o-FRzRT3-31" value="binlog" style="edgeLabel;html=1;align=center;verticalAlign=middle;resizable=0;points=[];" vertex="1" connectable="0" parent="MwiCVVlhlAA8o-FRzRT3-5">
          <mxGeometry x="-0.1609" relative="1" as="geometry">
            <mxPoint y="1" as="offset" />
          </mxGeometry>
        </mxCell>
        <mxCell id="MwiCVVlhlAA8o-FRzRT3-2" value="master" style="shape=cylinder3;whiteSpace=wrap;html=1;boundedLbl=1;backgroundOutline=1;size=15;fillColor=#fff2cc;strokeColor=#d6b656;" vertex="1" parent="1">
          <mxGeometry x="150" y="200" width="60" height="80" as="geometry" />
        </mxCell>
        <mxCell id="MwiCVVlhlAA8o-FRzRT3-28" value="pull binary log to sync" style="edgeStyle=orthogonalEdgeStyle;rounded=0;orthogonalLoop=1;jettySize=auto;html=1;exitX=0.5;exitY=1;exitDx=0;exitDy=0;exitPerimeter=0;" edge="1" parent="1" source="MwiCVVlhlAA8o-FRzRT3-4" target="MwiCVVlhlAA8o-FRzRT3-16">
          <mxGeometry relative="1" as="geometry" />
        </mxCell>
        <mxCell id="MwiCVVlhlAA8o-FRzRT3-4" value="slave" style="shape=cylinder3;whiteSpace=wrap;html=1;boundedLbl=1;backgroundOutline=1;size=15;fillColor=#fff2cc;strokeColor=#d6b656;" vertex="1" parent="1">
          <mxGeometry x="384" y="200" width="60" height="80" as="geometry" />
        </mxCell>
        <mxCell id="MwiCVVlhlAA8o-FRzRT3-6" value="host" style="text;html=1;strokeColor=none;fillColor=none;align=center;verticalAlign=middle;whiteSpace=wrap;rounded=0;dashed=1;" vertex="1" parent="1">
          <mxGeometry x="90" y="140" width="60" height="30" as="geometry" />
        </mxCell>
        <mxCell id="MwiCVVlhlAA8o-FRzRT3-7" value="host" style="text;html=1;strokeColor=none;fillColor=none;align=center;verticalAlign=middle;whiteSpace=wrap;rounded=0;dashed=1;" vertex="1" parent="1">
          <mxGeometry x="324" y="140" width="60" height="30" as="geometry" />
        </mxCell>
        <mxCell id="MwiCVVlhlAA8o-FRzRT3-8" value="OSS" style="rounded=1;whiteSpace=wrap;html=1;dashed=1;fillColor=#ffe6cc;strokeColor=#d79b00;" vertex="1" parent="1">
          <mxGeometry x="-310" y="20" width="310" height="260" as="geometry" />
        </mxCell>
        <mxCell id="MwiCVVlhlAA8o-FRzRT3-9" value="" style="rounded=0;whiteSpace=wrap;html=1;dashed=1;fillColor=#cce5ff;strokeColor=#36393d;" vertex="1" parent="1">
          <mxGeometry x="324" y="440" width="180" height="180" as="geometry" />
        </mxCell>
        <mxCell id="MwiCVVlhlAA8o-FRzRT3-11" style="edgeStyle=orthogonalEdgeStyle;rounded=0;orthogonalLoop=1;jettySize=auto;html=1;exitX=1;exitY=0.5;exitDx=0;exitDy=0;exitPerimeter=0;entryX=0;entryY=0.5;entryDx=0;entryDy=0;entryPerimeter=0;" edge="1" parent="1" target="MwiCVVlhlAA8o-FRzRT3-13">
          <mxGeometry relative="1" as="geometry">
            <mxPoint x="200" y="540" as="sourcePoint" />
          </mxGeometry>
        </mxCell>
        <mxCell id="MwiCVVlhlAA8o-FRzRT3-32" value="binlog" style="edgeLabel;html=1;align=center;verticalAlign=middle;resizable=0;points=[];" vertex="1" connectable="0" parent="MwiCVVlhlAA8o-FRzRT3-11">
          <mxGeometry x="0.0217" relative="1" as="geometry">
            <mxPoint y="1" as="offset" />
          </mxGeometry>
        </mxCell>
        <mxCell id="MwiCVVlhlAA8o-FRzRT3-13" value="slave" style="shape=cylinder3;whiteSpace=wrap;html=1;boundedLbl=1;backgroundOutline=1;size=15;fillColor=#f5f5f5;strokeColor=#666666;fontColor=#333333;" vertex="1" parent="1">
          <mxGeometry x="384" y="500" width="60" height="80" as="geometry" />
        </mxCell>
        <mxCell id="MwiCVVlhlAA8o-FRzRT3-14" value="host" style="text;html=1;strokeColor=none;fillColor=none;align=center;verticalAlign=middle;whiteSpace=wrap;rounded=0;dashed=1;" vertex="1" parent="1">
          <mxGeometry x="90" y="440" width="60" height="30" as="geometry" />
        </mxCell>
        <mxCell id="MwiCVVlhlAA8o-FRzRT3-15" value="host" style="text;html=1;strokeColor=none;fillColor=none;align=center;verticalAlign=middle;whiteSpace=wrap;rounded=0;dashed=1;" vertex="1" parent="1">
          <mxGeometry x="324" y="440" width="60" height="30" as="geometry" />
        </mxCell>
        <mxCell id="MwiCVVlhlAA8o-FRzRT3-16" value="master" style="shape=cylinder3;whiteSpace=wrap;html=1;boundedLbl=1;backgroundOutline=1;size=15;fillColor=#f5f5f5;strokeColor=#666666;fontColor=#333333;" vertex="1" parent="1">
          <mxGeometry x="140" y="500" width="60" height="80" as="geometry" />
        </mxCell>
        <mxCell id="MwiCVVlhlAA8o-FRzRT3-18" style="edgeStyle=orthogonalEdgeStyle;rounded=0;orthogonalLoop=1;jettySize=auto;html=1;" edge="1" parent="1" source="MwiCVVlhlAA8o-FRzRT3-17" target="MwiCVVlhlAA8o-FRzRT3-1">
          <mxGeometry relative="1" as="geometry" />
        </mxCell>
        <mxCell id="MwiCVVlhlAA8o-FRzRT3-29" style="edgeStyle=orthogonalEdgeStyle;rounded=0;orthogonalLoop=1;jettySize=auto;html=1;entryX=0;entryY=0.5;entryDx=0;entryDy=0;entryPerimeter=0;" edge="1" parent="1" source="MwiCVVlhlAA8o-FRzRT3-17" target="MwiCVVlhlAA8o-FRzRT3-16">
          <mxGeometry relative="1" as="geometry">
            <mxPoint x="-60" y="580" as="targetPoint" />
            <Array as="points">
              <mxPoint x="-60" y="540" />
            </Array>
          </mxGeometry>
        </mxCell>
        <mxCell id="MwiCVVlhlAA8o-FRzRT3-30" value="after sync &amp;amp; switch VIP" style="edgeLabel;html=1;align=center;verticalAlign=middle;resizable=0;points=[];" vertex="1" connectable="0" parent="MwiCVVlhlAA8o-FRzRT3-29">
          <mxGeometry x="0.0294" y="-1" relative="1" as="geometry">
            <mxPoint y="1" as="offset" />
          </mxGeometry>
        </mxCell>
        <mxCell id="MwiCVVlhlAA8o-FRzRT3-17" value="TGW VIP" style="rounded=0;whiteSpace=wrap;html=1;dashed=1;fillColor=#cdeb8b;strokeColor=#36393d;" vertex="1" parent="1">
          <mxGeometry x="-120" y="340" width="120" height="60" as="geometry" />
        </mxCell>
        <mxCell id="MwiCVVlhlAA8o-FRzRT3-20" value="device pair" style="text;html=1;strokeColor=none;fillColor=none;align=center;verticalAlign=middle;whiteSpace=wrap;rounded=0;dashed=1;" vertex="1" parent="1">
          <mxGeometry x="20" y="120" width="60" height="30" as="geometry" />
        </mxCell>
        <mxCell id="MwiCVVlhlAA8o-FRzRT3-22" value="device pair" style="text;html=1;strokeColor=none;fillColor=none;align=center;verticalAlign=middle;whiteSpace=wrap;rounded=0;dashed=1;" vertex="1" parent="1">
          <mxGeometry x="20" y="420" width="60" height="30" as="geometry" />
        </mxCell>
        <mxCell id="MwiCVVlhlAA8o-FRzRT3-26" style="edgeStyle=orthogonalEdgeStyle;rounded=0;orthogonalLoop=1;jettySize=auto;html=1;exitX=1;exitY=0;exitDx=0;exitDy=15;exitPerimeter=0;" edge="1" parent="1" source="MwiCVVlhlAA8o-FRzRT3-16" target="MwiCVVlhlAA8o-FRzRT3-24">
          <mxGeometry relative="1" as="geometry">
            <Array as="points">
              <mxPoint x="200" y="370" />
              <mxPoint x="720" y="370" />
            </Array>
          </mxGeometry>
        </mxCell>
        <mxCell id="MwiCVVlhlAA8o-FRzRT3-27" value="pull latest backup &amp;amp; recovery" style="edgeLabel;html=1;align=center;verticalAlign=middle;resizable=0;points=[];" vertex="1" connectable="0" parent="MwiCVVlhlAA8o-FRzRT3-26">
          <mxGeometry x="-0.0286" relative="1" as="geometry">
            <mxPoint y="1" as="offset" />
          </mxGeometry>
        </mxCell>
        <mxCell id="MwiCVVlhlAA8o-FRzRT3-24" value="backup" style="shape=cylinder3;whiteSpace=wrap;html=1;boundedLbl=1;backgroundOutline=1;size=15;fillColor=#d5e8d4;strokeColor=#82b366;" vertex="1" parent="1">
          <mxGeometry x="670" y="92.5" width="100" height="67.5" as="geometry" />
        </mxCell>
        <mxCell id="MwiCVVlhlAA8o-FRzRT3-33" value="rebuild" style="shape=process;whiteSpace=wrap;html=1;backgroundOutline=1;" vertex="1" parent="1">
          <mxGeometry x="-290" y="210" width="120" height="60" as="geometry" />
        </mxCell>
        <mxCell id="MwiCVVlhlAA8o-FRzRT3-34" value="expand" style="shape=process;whiteSpace=wrap;html=1;backgroundOutline=1;" vertex="1" parent="1">
          <mxGeometry x="-130" y="60" width="120" height="60" as="geometry" />
        </mxCell>
        <mxCell id="MwiCVVlhlAA8o-FRzRT3-35" value="rollback" style="shape=process;whiteSpace=wrap;html=1;backgroundOutline=1;" vertex="1" parent="1">
          <mxGeometry x="-290" y="60" width="120" height="60" as="geometry" />
        </mxCell>
        <mxCell id="MwiCVVlhlAA8o-FRzRT3-36" value="upgrade" style="shape=process;whiteSpace=wrap;html=1;backgroundOutline=1;" vertex="1" parent="1">
          <mxGeometry x="-140" y="210" width="120" height="60" as="geometry" />
        </mxCell>
      </root>
    </mxGraphModel>
  </diagram>
</mxfile>
